{"title":"Hidden Away HDRip NoLifetimeLogo.avi","uid":8953419,"size":362242750,"categoryP":"video","categoryS":"movies","magnet":"?xt=urn:btih:d62ed96d7f5c8f39368508d6ecde1129249bd54a&amp;dn=Hidden+Away+HDRip+NoLifetimeLogo.avi&amp;tr=udp%3A%2F%2Ftracker.openbittorrent.com%3A80&amp;tr=udp%3A%2F%2Fopen.demonii.com%3A1337&amp;tr=udp%3A%2F%2Ftracker.coppersurfer.tk%3A6969&amp;tr=udp%3A%2F%2Fexodus.desync.com%3A6969","seeders":1,"leechers":3,"uploader":"globeplus","files":-1,"time":1379945780,"description":"Hidden Away HDRip NoLifetimeLogo.avi\n\nFormat                                   : AVI\nFormat/Info                              : Audio Video Interleave\nFile size                                : 345 MiB\nDuration                                 : 1h 25mn\nOverall bit rate                         : 567 Kbps\nWriting application                      : Lavf52.78.5\n\nVideo\n\nID                                       : 0\nFormat                                   : MPEG-4 Visual\nFormat profile                           : Simple@L1\nFormat settings, BVOP                    : No\nFormat settings, QPel                    : No\nFormat settings, GMC                     : No warppoints\nFormat settings, Matrix                  : Default (H.263)\nCodec ID                                 : FMP4\nDuration                                 : 1h 25mn\nBit rate                                 : 200 Kbps\nWidth                                    : 320 pixels\nHeight                                   : 240 pixels\nDisplay aspect ratio                     : 4:3\nFrame rate                               : 29.970 fps\nColor space                              : YUV\nChroma subsampling                       : 4:2:0\nBit depth                                : 8 bits\nScan type                                : Progressive\nCompression mode                         : Lossy\nBits/(Pixel*Frame)                       : 0.087\nStream size                              : 122 MiB (35%)\nWriting library                          : Lavc52.91.1\n\nAudio\n\nID                                       : 1\nFormat                                   : PCM\nFormat settings, Endianness              : Little\nFormat settings, Sign                    : Unsigned\nCodec ID                                 : 1\nDuration                                 : 1h 25mn\nBit rate mode                            : Constant\nBit rate                                 : 352.8 Kbps\nChannel(s)                               : 2 channels\nSampling rate                            : 22.05 KHz\nBit depth                                : 8 bits\nStream size                              : 215 MiB (62%)\nAlignment                                : Aligned on interleaves\nInterleave, duration                     : 24 ms (0.72 video frame)\n\n\nPlot :\n\nA woman and young daughter escape her abusive husband by faking their deaths. Eight years later she is happily living in the upscale Palm Springs with her now-17-year-old daughter. When her husband discovers they are still alive, he tracks them down and spies on them to learn all about the new life they've created until he can exact his revenge.\n\n\n\n* enjoy ...\n","torrent":{"xt":"urn:btih:d62ed96d7f5c8f39368508d6ecde1129249bd54a","amp;dn":"Hidden+Away+HDRip+NoLifetimeLogo.avi","amp;tr":["udp%3A%2F%2Ftracker.openbittorrent.com%3A80","udp%3A%2F%2Fopen.demonii.com%3A1337","udp%3A%2F%2Ftracker.coppersurfer.tk%3A6969","udp%3A%2F%2Fexodus.desync.com%3A6969"],"infoHash":"d62ed96d7f5c8f39368508d6ecde1129249bd54a","infoHashBuffer":{"type":"Buffer","data":[214,46,217,109,127,92,143,57,54,133,8,214,236,222,17,41,36,155,213,74]},"announce":[],"urlList":[]}}